# xmcd
#
# Track frame offsets:
# 183
# 14038
# 27935
# 44790
# 61658
# 77610
# 89330
# 103215
# 114463
# 126778
# 143060
# 154475
# 167605
# 181590
# 200783
# 213325
# 226553
# 238370
# 250555
#
# Disc length: 3454 seconds
#
# Revision: 0
# Processed by: cddbd v1.5.1PL0 Copyright (c) Steve Scherf et al.
# Submitted via: Audion 3.0.2 (http://www.panic.com/audion/)
#
DISCID=020d7c13
DTITLE=Guy BEART - Les années Beart - 1965 - 1966
DYEAR=1900
DGENRE=
TTITLE0=Qui suis je
TTITLE1=Cerceuil a roulettes
TTITLE2=Le train pour avant-hiere
TTITLE3=Escalier B
TTITLE4=La télé
TTITLE5=Allo tu m'entends'
TTITLE6=Entre chien et loup
TTITLE7=La dame au p'tit chien
TTITLE8=Les grands principes
TTITLE9=L'insouciance des jours
TTITLE10=Et puisqu'en tout cas on est malheureux
TTITLE11=J'airetrouve le pont du nord
TTITLE12=Lune ma banlieue
TTITLE13=De la lune qui se souvient
TTITLE14=La lune est verte
TTITLE15=Les souliers'
TTITLE16=Il y a si longtemps que je rode
TTITLE17=Feuille vole
TTITLE18=Le rendez-vous'
EXTD=
EXTT0=
EXTT1=
EXTT2=
EXTT3=
EXTT4=
EXTT5=
EXTT6=
EXTT7=
EXTT8=
EXTT9=
EXTT10=
EXTT11=
EXTT12=
EXTT13=
EXTT14=
EXTT15=
EXTT16=
EXTT17=
EXTT18=
PLAYORDER=
